# xmcd
# 
# Track frame offsets:
#     150
#     9000
#     27468
#     40123
#     49106
#     61982
#     77368
#     90364
#     102257
#     113474
#     128053
#     143680
#     155005
#     167290
#     178519
#     187318
# 
# Disc length: 2654
# 
# Revision: 0
# Processed by: cddbd v1.5.2PL0 Copyright (c) Steve Scherf et al.
# Submitted via: fre:ac v1.0.17
# 
DISCID=b80a5c10
DTITLE=Peter Crow - Greedy Woman Blues
DYEAR=2004
DGENRE=Blues
TTITLE0=Papa's Getting Hot
TTITLE1=I Don't Care No More
TTITLE2=Shake Hands And Tell Me Goodbye
TTITLE3=Uncle Bud
TTITLE4=I Wonder Why
TTITLE5=Evil Queen Of Diamonds
TTITLE6=Hard Time Killing Floor
TTITLE7=Yo Yo Blues
TTITLE8=Reefer Smokin' Man
TTITLE9=The Angel's Massage To Me
TTITLE10=Greedy Woman Blues
TTITLE11=Keep Your Lamp Trimmed And Burning
TTITLE12=Troubling Woman Blues
TTITLE13=Hng It On The Wall
TTITLE14=New Hard Times Blues
TTITLE15=What your Loving
EXTD=
EXTT0=
EXTT1=
EXTT2=
EXTT3=
EXTT4=
EXTT5=
EXTT6=
EXTT7=
EXTT8=
EXTT9=
EXTT10=
EXTT11=
EXTT12=
EXTT13=
EXTT14=
EXTT15=
PLAYORDER=
